<svg xmlns="http://www.w3.org/2000/svg">
<defs>
<clipPath id="a"><path fill="#fff" d="M0 0h12v12H0z"/></clipPath>
<clipPath id="a"><path fill="#fff" d="M0 0h17v17H0z"/></clipPath>
</defs>
<symbol id="chechbox" viewBox="0 0 19 19"><rect x=".25" y=".25" width="18.5" height="18.5" rx="1.75" stroke="#394247" stroke-width=".5"/></symbol>
<symbol id="checked" viewBox="0 0 9 7"><path d="M8.856.911L8.561.616a.488.488 0 0 0-.348-.143.488.488 0 0 0-.348.143L3.723 4.76 1.135 2.17a.489.489 0 0 0-.348-.144.49.49 0 0 0-.348.144l-.295.294A.49.49 0 0 0 0 2.814c0 .131.05.255.144.348l2.922 2.922.013.015.294.29a.486.486 0 0 0 .35.138h.001a.485.485 0 0 0 .348-.138l.295-.293c.005-.004.009-.008.011-.012l4.478-4.478a.492.492 0 0 0 0-.695z" fill="#000"/></symbol>
<symbol id="email" viewBox="0 0 17 13"><path d="M15.406.125H1.594C.714.125 0 .84 0 1.719v9.562c0 .88.715 1.594 1.594 1.594h13.812c.88 0 1.594-.715 1.594-1.594V1.72c0-.88-.715-1.594-1.594-1.594zm0 1.062c.072 0 .141.015.204.042L8.5 7.39 1.39 1.229a.529.529 0 0 1 .204-.042h13.812zm0 10.626H1.594a.532.532 0 0 1-.532-.532v-8.93l7.09 6.144a.53.53 0 0 0 .696 0l7.09-6.144v8.93a.532.532 0 0 1-.532.531z" fill="#000"/></symbol>
<symbol id="info" viewBox="0 0 13 13"><path d="M7.05 11H5.944V4.783h1.108V11zm0-7.395H5.944V2.41h1.108v1.195z" fill="#1C85E8"/><circle cx="6.5" cy="6.5" r="6.1" stroke="#1C85E8" stroke-width=".8"/></symbol>
<symbol id="newlink" viewBox="0 0 12 12"><g clip-path="url(#a)" fill="#394247"><path d="M11.455 0H7.09a.545.545 0 0 0 0 1.09h3.047L4.524 6.706a.545.545 0 1 0 .77.772l5.615-5.615V4.91a.545.545 0 0 0 1.091 0V.545A.545.545 0 0 0 11.455 0z"/><path d="M9.273 5.454A.545.545 0 0 0 8.727 6v4.909H1.091V3.273H6a.545.545 0 0 0 0-1.091H.545A.545.545 0 0 0 0 2.727v8.728c0 .3.244.545.545.545h8.728a.545.545 0 0 0 .545-.546V6a.546.546 0 0 0-.545-.546z"/></g></symbol>
<symbol id="support" viewBox="0 0 21 20"><path d="M18.999 8.371a.366.366 0 0 0-.366.366v1.306a1.36 1.36 0 0 1-1.358 1.358h-2.088a.366.366 0 0 0-.259.107l-2.53 2.53v-2.271a.366.366 0 0 0-.367-.366H6.788a1.36 1.36 0 0 1-1.358-1.358v-5.54c0-.75.61-1.358 1.358-1.358h10.486c.75 0 1.359.609 1.359 1.358v1.305a.366.366 0 1 0 .732 0V4.503c0-1.153-.938-2.09-2.09-2.09H6.787c-1.153 0-2.09.937-2.09 2.09v4.704H2.031c-.781 0-1.417.636-1.417 1.417V14c0 .781.636 1.416 1.417 1.416h1.12l1.815 1.816a.366.366 0 0 0 .625-.26v-1.556H8.42c.781 0 1.417-.635 1.417-1.416v-1.866h1.828v2.79a.366.366 0 0 0 .625.258l3.049-3.048h1.935c1.153 0 2.091-.938 2.091-2.09V8.736A.366.366 0 0 0 19 8.371zM9.104 14a.685.685 0 0 1-.684.684H5.226a.366.366 0 0 0-.366.366v1.039L3.563 14.79a.366.366 0 0 0-.26-.107H2.033a.685.685 0 0 1-.684-.684v-3.375c0-.377.307-.684.684-.684h2.665v.103c0 1.152.938 2.09 2.091 2.09h2.316V14z" fill="#000"/><path d="M15.602 4.812H8.461a.366.366 0 0 0 0 .732h7.141a.366.366 0 1 0 0-.732zM15.968 7.156a.366.366 0 0 0-.366-.366H8.461a.366.366 0 0 0 0 .732h7.141a.366.366 0 0 0 .366-.366zM8.461 8.767a.366.366 0 0 0 0 .733h4.12a.366.366 0 1 0 0-.733H8.46zM18.999 6.906a.367.367 0 0 0 0 .733.367.367 0 0 0 0-.733z" fill="#000"/><circle cx="18.5" cy="2.5" r="2.5" fill="#1C85E8"/></symbol>
<symbol id="wallet" viewBox="0 0 17 17"><g clip-path="url(#a)" fill="#000"><path d="M16.645 8.466h-.926v-2.71a.353.353 0 0 0-.352-.353h-1.433V3.097c-.001-.68-.552-1.231-1.232-1.232h-4.63L7.19.978a1.054 1.054 0 0 0-1.595.113l-.574.774H2.112A2.114 2.114 0 0 0 0 3.977v10.245a2.114 2.114 0 0 0 2.112 2.112h13.276a.353.353 0 0 0 .352-.352v-2.816h.908a.353.353 0 0 0 .352-.353V8.818a.356.356 0 0 0-.355-.352zm-3.943-5.897a.527.527 0 0 1 .528.528v2.306h-1.634l-2.82-2.834h3.926zM6.157 1.513a.352.352 0 0 1 .532-.039L10.6 5.403H3.27l2.887-3.89zM.704 3.977c0-.778.63-1.408 1.408-1.408H4.5L2.394 5.403h-.282c-.778 0-1.408-.63-1.408-1.408v-.018zM15.032 15.63H2.112c-.778 0-1.408-.63-1.408-1.408V5.568c.387.348.888.54 1.408.54h9.262a.373.373 0 0 0 .176 0h3.468v2.358h-1.993a1.76 1.76 0 0 0-1.76 1.76v1.183c0 .972.788 1.76 1.76 1.76h2.01v2.46h-.003zm1.26-3.165h-3.27a1.06 1.06 0 0 1-1.056-1.056v-1.183a1.06 1.06 0 0 1 1.056-1.056h2.235a.349.349 0 0 0 .219 0h.816v3.295z"/><path d="M13.374 9.874a.353.353 0 0 0-.352.352v1.183a.352.352 0 1 0 .704 0v-1.183a.35.35 0 0 0-.352-.352z"/></g></symbol>
</svg>