<svg width="9" height="7" viewBox="0 0 9 7" fill="none" xmlns="http://www.w3.org/2000/svg">
<path d="M8.856 0.911214L8.56119 0.616409C8.46856 0.523702 8.34505 0.472702 8.21319 0.472702C8.08134 0.472702 7.95776 0.523702 7.86512 0.616409L3.72271 4.75875L1.13459 2.17056C1.04195 2.07799 0.918366 2.02692 0.786512 2.02692C0.654732 2.02692 0.531219 2.07799 0.438512 2.17056L0.143634 2.46529C0.0509268 2.55814 0 2.6818 0 2.81351C0 2.94529 0.0509268 3.06887 0.143634 3.16158L3.06578 6.08358C3.06966 6.08907 3.07376 6.09419 3.07851 6.09887L3.37339 6.38885C3.46602 6.48119 3.58961 6.52736 3.72249 6.52736H3.72402C3.85595 6.52736 3.97954 6.48119 4.07202 6.38885L4.36698 6.09631C4.37173 6.09163 4.37576 6.08775 4.37817 6.0838L8.85593 1.60648C9.048 1.41485 9.048 1.10307 8.856 0.911214Z" fill="black"/>
</svg>
