<svg width="12" height="12" viewBox="0 0 12 12" fill="none" xmlns="http://www.w3.org/2000/svg">
<g clip-path="url(#clip0)">
<path d="M11.4546 0H7.09101C6.78976 0 6.54555 0.244219 6.54555 0.545461C6.54555 0.846703 6.78976 1.09092 7.09101 1.09092H10.1378L4.52352 6.70523C4.3105 6.91826 4.3105 7.26359 4.52352 7.47661C4.63 7.58311 4.76959 7.63636 4.90919 7.63636C5.04878 7.63636 5.1884 7.58313 5.2949 7.47659L10.9092 1.8623V4.9091C10.9092 5.21034 11.1534 5.45456 11.4547 5.45456C11.7559 5.45456 12.0001 5.21034 12.0001 4.9091V0.545461C12.0001 0.244219 11.7559 0 11.4546 0Z" fill="#394247"/>
<path d="M9.27272 5.45448C8.97148 5.45448 8.72726 5.6987 8.72726 5.99994V10.909H1.0909V3.27266H6C6.30124 3.27266 6.54546 3.02844 6.54546 2.7272C6.54546 2.42596 6.30124 2.18176 6 2.18176H0.545461C0.244219 2.18176 0 2.42598 0 2.72722V11.4545C0 11.7557 0.244219 11.9999 0.545461 11.9999H9.27274C9.57398 11.9999 9.8182 11.7557 9.8182 11.4545V5.99994C9.81818 5.6987 9.57396 5.45448 9.27272 5.45448Z" fill="#394247"/>
</g>
<defs>
<clipPath id="clip0">
<rect width="12" height="12" fill="white"/>
</clipPath>
</defs>
</svg>
