<svg width="21" height="20" viewBox="0 0 21 20" fill="none" xmlns="http://www.w3.org/2000/svg">
<path d="M18.999 8.37116C18.7967 8.37116 18.6328 8.53527 18.6328 8.73737V10.0425C18.6328 10.7914 18.0234 11.4008 17.2745 11.4008H15.1871C15.09 11.4008 14.9969 11.4392 14.9281 11.5079L12.3975 14.0386V11.767C12.3975 11.5646 12.2335 11.4008 12.0313 11.4008H6.78807C6.03917 11.4008 5.42977 10.7915 5.42977 10.0425V4.50272C5.42977 3.75381 6.03917 3.14453 6.78807 3.14453H17.2745C18.0234 3.14453 18.6328 3.75381 18.6328 4.50272V5.80769C18.6328 6.01002 18.7967 6.1739 18.999 6.1739C19.2011 6.1739 19.3652 6.01002 19.3652 5.80769V4.50272C19.3652 3.34995 18.4274 2.41211 17.2745 2.41211H6.78807C5.63519 2.41211 4.69735 3.34995 4.69735 4.50272V9.2075H2.03191C1.25085 9.2075 0.615242 9.84287 0.615242 10.6242V13.9988C0.615242 14.7801 1.25085 15.4155 2.03191 15.4155H3.15194L4.96697 17.2306C5.03712 17.3008 5.13085 17.3379 5.22607 17.3379C5.27322 17.3379 5.32094 17.3288 5.36614 17.31C5.50301 17.2534 5.59228 17.1199 5.59228 16.9717V15.4155H8.42011C9.20129 15.4155 9.83678 14.7801 9.83678 13.9988V12.1332H11.6651V14.9227C11.6651 15.0709 11.7543 15.2043 11.8912 15.261C11.9364 15.2797 11.984 15.2889 12.0313 15.2889C12.1266 15.2889 12.2202 15.2517 12.2903 15.1815L15.3388 12.1332H17.2745C18.4274 12.1332 19.3652 11.1953 19.3652 10.0425V8.73737C19.3652 8.53527 19.2011 8.37116 18.999 8.37116ZM9.10447 13.9988C9.10447 14.3762 8.79754 14.683 8.42011 14.683H5.22607C5.02373 14.683 4.85986 14.8471 4.85986 15.0492V16.0877L3.56255 14.7904C3.49389 14.7217 3.40073 14.683 3.30357 14.683H2.03191C1.65459 14.683 1.34766 14.3762 1.34766 13.9988V10.6242C1.34766 10.2468 1.65459 9.93992 2.03191 9.93992H4.69735V10.0425C4.69735 11.1953 5.63519 12.1332 6.78807 12.1332H9.10447V13.9988Z" fill="black"/>
<path d="M15.6022 4.81192H8.46102C8.2588 4.81192 8.0948 4.97591 8.0948 5.17813C8.0948 5.38046 8.2588 5.54434 8.46102 5.54434H15.6022C15.8044 5.54434 15.9684 5.38046 15.9684 5.17813C15.9684 4.97591 15.8044 4.81192 15.6022 4.81192Z" fill="black"/>
<path d="M15.9684 7.15576C15.9684 6.95354 15.8044 6.78955 15.6022 6.78955H8.46102C8.2588 6.78955 8.0948 6.95354 8.0948 7.15576C8.0948 7.35809 8.2588 7.52197 8.46102 7.52197H15.6022C15.8044 7.52197 15.9684 7.35809 15.9684 7.15576Z" fill="black"/>
<path d="M8.46101 8.76709C8.2588 8.76709 8.0948 8.93108 8.0948 9.1333C8.0948 9.33563 8.2588 9.49951 8.46101 9.49951H12.5809C12.7831 9.49951 12.9471 9.33563 12.9471 9.1333C12.9471 8.93108 12.7831 8.76709 12.5809 8.76709H8.46101Z" fill="black"/>
<path d="M18.999 6.90628C18.7974 6.90628 18.6328 7.07085 18.6328 7.27249C18.6328 7.47425 18.7974 7.6387 18.999 7.6387C19.2007 7.6387 19.3652 7.47425 19.3652 7.27249C19.3652 7.07085 19.2007 6.90628 18.999 6.90628Z" fill="black"/>
<circle cx="18.5" cy="2.5" r="2.5" fill="#1C85E8"/>
</svg>
