<svg width="17" height="13" viewBox="0 0 17 13" fill="none" xmlns="http://www.w3.org/2000/svg">
<path d="M15.4062 0.124969H1.59376C0.714907 0.124969 0 0.839877 0 1.71873V11.2812C0 12.1601 0.714907 12.875 1.59376 12.875H15.4062C16.2851 12.875 17 12.1601 17 11.2812V1.71873C17 0.839877 16.2851 0.124969 15.4062 0.124969ZM15.4062 1.18746C15.4784 1.18746 15.5471 1.20244 15.6099 1.22859L8.5 7.39076L1.39011 1.22859C1.45288 1.20248 1.52155 1.18746 1.59373 1.18746H15.4062ZM15.4062 11.8125H1.59376C1.30064 11.8125 1.0625 11.5743 1.0625 11.2812V2.35113L8.15188 8.49527C8.25202 8.58189 8.37601 8.62497 8.5 8.62497C8.62399 8.62497 8.74798 8.58192 8.84812 8.49527L15.9375 2.35113V11.2812C15.9375 11.5743 15.6994 11.8125 15.4062 11.8125Z" fill="black"/>
</svg>
