<svg width="17" height="17" viewBox="0 0 17 17" fill="none" xmlns="http://www.w3.org/2000/svg">
<g clip-path="url(#clip0)">
<path d="M16.6445 8.46575H15.7186V5.75505C15.718 5.56074 15.5607 5.40356 15.3665 5.40301H13.9338V3.09715C13.9329 2.41686 13.3818 1.8657 12.7016 1.86501H8.0723L7.18862 0.977759C6.97245 0.759522 6.67184 0.646347 6.36546 0.667937C6.05893 0.689664 5.77717 0.843957 5.59386 1.09052L5.02014 1.86501H2.11224C0.946107 1.86583 0.000962611 2.81098 0 3.97725V14.2216C0.000962611 15.3877 0.946107 16.3329 2.11224 16.3338H15.3877C15.5819 16.3332 15.7392 16.176 15.7398 15.9818V13.1655H16.6479C16.8422 13.1648 16.9994 13.0076 16.9999 12.8134V8.81779C16.9977 8.6228 16.8393 8.46603 16.6445 8.46575ZM12.7016 2.56909C12.8418 2.56881 12.9761 2.62437 13.0753 2.72352C13.1743 2.82253 13.2298 2.95702 13.2297 3.09715V5.40301H11.5961L8.77638 2.56909H12.7016ZM6.15712 1.51297C6.21832 1.43087 6.3121 1.37958 6.41414 1.37215C6.51617 1.36473 6.61642 1.40186 6.68876 1.47419L10.6 5.40301H3.27039L6.15712 1.51297ZM0.70408 3.97725C0.703805 3.19932 1.33445 2.56881 2.11224 2.56909H4.4991L2.39387 5.40301H2.11224C1.33445 5.40315 0.703805 4.77264 0.70408 3.99485V3.97725ZM15.0321 15.6298H2.11224C1.33445 15.6299 0.703805 14.9994 0.70408 14.2216V5.56844C1.09077 5.91594 1.59243 6.10778 2.11224 6.10709H11.3745C11.4322 6.12111 11.4926 6.12111 11.5505 6.10709H15.0181V8.46575H13.0255C12.0535 8.46603 11.2657 9.25386 11.2653 10.226V11.4087C11.2657 12.3807 12.0535 13.1686 13.0255 13.1689H15.0357V15.6298H15.0321ZM16.2924 12.4648H13.0219C12.4394 12.4632 11.9676 11.9914 11.9658 11.4087V10.226C11.9676 9.6433 12.4394 9.17148 13.0219 9.16983H15.2573C15.3283 9.19321 15.4048 9.19321 15.4757 9.16983H16.2924V12.4648Z" fill="black"/>
<path d="M13.3737 9.8738C13.1796 9.87435 13.0222 10.0315 13.0217 10.2258V11.4086C13.0217 11.6031 13.1794 11.7607 13.3737 11.7607C13.5682 11.7607 13.7258 11.6031 13.7258 11.4086V10.2258C13.7262 10.1323 13.6892 10.0425 13.6231 9.97653C13.557 9.91038 13.4673 9.87339 13.3737 9.8738Z" fill="black"/>
</g>
<defs>
<clipPath id="clip0">
<rect width="17" height="17" fill="white"/>
</clipPath>
</defs>
</svg>
